<?xml version="1.0" encoding="utf-8"?>
<!-- Generator: Adobe Illustrator 18.1.0, SVG Export Plug-In . SVG Version: 6.00 Build 0)  -->
<svg version="1.1" id="Layer_1" xmlns:sketch="http://www.bohemiancoding.com/sketch/ns"
	 xmlns="http://www.w3.org/2000/svg" xmlns:xlink="http://www.w3.org/1999/xlink" x="0px" y="0px" width="30px" height="19.7px"
	 viewBox="-439.6 271.1 30 19.7" enable-background="new -439.6 271.1 30 19.7" xml:space="preserve">
<title>icon-mail-orange</title>
<desc>Created with Sketch Beta.</desc>
<g id="Page-1" sketch:type="MSPage">
	<g id="icon-mail-orange" sketch:type="MSLayerGroup">
		<path id="Shape" sketch:type="MSShapeGroup" fill="#FF6326" d="M-438.6,273c0.8,0.4,12.1,6.6,12.5,6.9c0.4,0.2,1,0.3,1.5,0.3
			s1.1-0.1,1.5-0.3c0.4-0.2,11.7-6.4,12.5-6.9c0.8-0.4,1.6-1.8,0.1-1.8h-28.2C-440.2,271.1-439.4,272.5-438.6,273L-438.6,273z
			 M-410.3,276.4c-0.9,0.5-12.3,6.5-12.8,6.9c-0.6,0.3-1,0.3-1.5,0.3s-0.9,0-1.5-0.3c-0.6-0.3-11.9-6.4-12.8-6.9
			c-0.7-0.3-0.6,0.1-0.6,0.4v12.5c0,0.7,0.9,1.6,1.7,1.6h26.7c0.7,0,1.7-0.9,1.7-1.6v-12.5C-409.6,276.4-409.6,276-410.3,276.4
			L-410.3,276.4z"/>
	</g>
</g>
</svg>
